#tb 0: 1/25
#media_type 0: video
#codec_id 0: rawvideo
#dimensions 0: 352x288
#sar 0: 0/1
0,          0,          0,        1,   152064, 0xb055a9bd
0,          1,          1,        1,   152064, 0x9e1eadb6
0,          2,          2,        1,   152064, 0x48f117d2
0,          3,          3,        1,   152064, 0x3e3ff049
0,          4,          4,        1,   152064, 0x2ff80943
0,          5,          5,        1,   152064, 0xc5ee16a6
0,          6,          6,        1,   152064, 0x38c33f28
0,          7,          7,        1,   152064, 0x3e8444c7
0,          8,          8,        1,   152064, 0x14ca4ab2
0,          9,          9,        1,   152064, 0xe20e78f7
